<svg id="color" enable-background="new 0 0 24 24" height="512" viewBox="0 0 24 24" width="512" xmlns="http://www.w3.org/2000/svg"><path d="m21 1h-18c-1.654 0-3 1.346-3 3v16c0 1.654 1.346 3 3 3h18c1.654 0 3-1.346 3-3v-16c0-1.654-1.346-3-3-3z" fill="#607d8b"/><path d="m21 21h-18c-.551 0-1-.448-1-1v-14h20v14c0 .552-.449 1-1 1z" fill="#fff"/><path d="m12 1h-9c-1.654 0-3 1.346-3 3v16c0 1.654 1.346 3 3 3h9v-2h-9c-.551 0-1-.448-1-1v-14h10z" fill="#546d79"/><path d="m12 6h-10v14c0 .552.449 1 1 1h9z" fill="#dedede"/><g fill="#2196f3"><circle cx="3.75" cy="16.25" r=".75"/><path d="m14.25 14.75h-2.5c-.414 0-.414-1.5 0-1.5h2.5c.414 0 .75.336.75.75s-.336.75-.75.75z"/><path d="m14.25 17h-1.5c-.965 0-1.75-.785-1.75-1.75v-2.5c0-.965.785-1.75 1.75-1.75h1.5c.414 0 .75.336.75.75s-.336.75-.75.75h-1.5c-.138 0-.25.112-.25.25v2.5c0 .138.112.25.25.25h1.5c.414 0 .75.336.75.75s-.336.75-.75.75z"/><path d="m9.25 17c-.268 0-.521-.144-.656-.386l-1.094-1.969v1.605c0 .414-.336.75-.75.75s-.75-.336-.75-.75v-4.5c0-.342.231-.641.562-.726.329-.088.677.062.844.361l1.094 1.97v-1.605c0-.414.336-.75.75-.75s.75.336.75.75v4.5c0 .342-.231.641-.562.726z"/><path d="m18.5 17c-.414 0-.75-.336-.75-.75v-4.5c0-.414 1.5-.414 1.5 0v4.5c0 .414-.336.75-.75.75z"/><path d="m20.25 12.5h-3.5c-.414 0-.75-.336-.75-.75s.336-.75.75-.75h3.5c.414 0 .75.336.75.75s-.336.75-.75.75z"/></g><path d="m15 14h-2.5v.75h1.75c.414 0 .75-.336.75-.75z" fill="#1d83d4"/><path d="m12.5 14h-1.5v1.25c0 .965.785 1.75 1.75 1.75h1.5c.414 0 .75-.336.75-.75s-.336-.75-.75-.75h-1.5c-.138 0-.25-.112-.25-.25v-.5z" fill="#1d83d4"/><path d="m10 14h-4v2.25c0 .414.336.75.75.75s.75-.336.75-.75v-1.605l1.094 1.97c.135.241.388.385.656.385l.188-.024c.331-.085.562-.384.562-.726z" fill="#1d83d4"/><path d="m19.25 14h-1.5v2.25c0 .414.336.75.75.75s.75-.336.75-.75z" fill="#1d83d4"/></svg>