<svg height="512pt" viewBox="0 0 512 511" width="512pt" xmlns="http://www.w3.org/2000/svg"><path d="m433 512.453125h-333v-30h333c27.019531 0 49-21.980469 49-49v-1c0-27.019531-21.980469-49-49-49h-124c-43.5625 0-79-35.441406-79-79 0-43.5625 35.4375-79 79-79h103v30h-103c-27.019531 0-49 21.980469-49 49s21.980469 49 49 49h124c43.5625 0 79 35.4375 79 79v1c0 43.558594-35.4375 79-79 79zm0 0" fill="#0053bf"/><path d="m412 241.652344-70.707031-70.632813c-18.890625-18.871093-29.292969-43.964843-29.292969-70.652343 0-26.691407 10.402344-51.785157 29.292969-70.65625 38.988281-38.949219 102.425781-38.949219 141.410156 0h.003906c18.890625 18.871093 29.292969 43.964843 29.292969 70.65625 0 26.6875-10.402344 51.78125-29.292969 70.652343zm0 0" fill="#99f9ff"/><path d="m482.707031 29.710938c-19.496093-19.472657-45.101562-29.210938-70.707031-29.210938v241.152344l70.707031-70.632813c18.890625-18.871093 29.292969-43.964843 29.292969-70.652343 0-26.691407-10.402344-51.785157-29.292969-70.65625zm0 0" fill="#00e5ee"/><path d="m427 98.453125c0 8.285156-6.714844 15-15 15s-15-6.714844-15-15 6.714844-15 15-15 15 6.714844 15 15zm0 0" fill="#2864f0"/><path d="m427 98.453125c0-8.285156-6.714844-15-15-15v30c8.285156 0 15-6.71875 15-15zm0 0" fill="#0053bf"/><path d="m100 498.652344-70.707031-70.632813c-18.890625-18.871093-29.292969-43.964843-29.292969-70.652343 0-26.691407 10.402344-51.785157 29.292969-70.65625 38.988281-38.949219 102.425781-38.949219 141.410156 0h.003906c18.890625 18.871093 29.292969 43.964843 29.292969 70.65625 0 26.6875-10.402344 51.78125-29.292969 70.652343zm0 0" fill="#f92814"/><path d="m170.707031 286.710938c-19.496093-19.472657-45.101562-29.210938-70.707031-29.210938v241.15625l70.707031-70.632812c18.890625-18.875 29.292969-43.96875 29.292969-70.65625 0-26.691407-10.402344-51.785157-29.292969-70.65625zm0 0" fill="#db0b04"/><path d="m115 355.453125c0 8.285156-6.714844 15-15 15s-15-6.714844-15-15 6.714844-15 15-15 15 6.714844 15 15zm0 0" fill="#ffee4a"/><path d="m115 355.453125c0-8.285156-6.714844-15-15-15v30c8.285156 0 15-6.71875 15-15zm0 0" fill="#ffd844"/></svg>