<svg width="284" height="283" viewBox="0 0 284 283" fill="none" xmlns="http://www.w3.org/2000/svg">
<g clip-path="url(#clip0_904_106)">
<path d="M47.318 89.6539C56.6527 89.6539 64.22 81.9657 64.22 72.4817C64.22 62.9978 56.6527 55.3096 47.318 55.3096C37.9833 55.3096 30.416 62.9978 30.416 72.4817C30.416 81.9657 37.9833 89.6539 47.318 89.6539Z" fill="#509EE3"/>
<path d="M47.318 137.736C56.6527 137.736 64.22 130.048 64.22 120.564C64.22 111.08 56.6527 103.392 47.318 103.392C37.9833 103.392 30.416 111.08 30.416 120.564C30.416 130.048 37.9833 137.736 47.318 137.736Z" fill="#509EE3"/>
<path opacity="0.2" d="M94.6442 89.6539C103.979 89.6539 111.546 81.9657 111.546 72.4817C111.546 62.9978 103.979 55.3096 94.6442 55.3096C85.3095 55.3096 77.7422 62.9978 77.7422 72.4817C77.7422 81.9657 85.3095 89.6539 94.6442 89.6539Z" fill="#509EE3"/>
<path d="M94.6442 138.203C103.979 138.203 111.546 130.515 111.546 121.031C111.546 111.547 103.979 103.858 94.6442 103.858C85.3095 103.858 77.7422 111.547 77.7422 121.031C77.7422 130.515 85.3095 138.203 94.6442 138.203Z" fill="#509EE3"/>
<path opacity="0.2" d="M141.968 89.6539C151.303 89.6539 158.87 81.9657 158.87 72.4817C158.87 62.9978 151.303 55.3096 141.968 55.3096C132.634 55.3096 125.066 62.9978 125.066 72.4817C125.066 81.9657 132.634 89.6539 141.968 89.6539Z" fill="#509EE3"/>
<path opacity="0.2" d="M141.968 34.7027C151.303 34.7027 158.87 27.0145 158.87 17.5306C158.87 8.04664 151.303 0.358398 141.968 0.358398C132.634 0.358398 125.066 8.04664 125.066 17.5306C125.066 27.0145 132.634 34.7027 141.968 34.7027Z" fill="#509EE3"/>
<path opacity="0.2" d="M141.968 138.203C151.303 138.203 158.87 130.515 158.87 121.031C158.87 111.547 151.303 103.858 141.968 103.858C132.634 103.858 125.066 111.547 125.066 121.031C125.066 130.515 132.634 138.203 141.968 138.203Z" fill="#509EE3"/>
<path opacity="0.2" d="M189.295 89.6539C198.629 89.6539 206.197 81.9657 206.197 72.4817C206.197 62.9978 198.629 55.3096 189.295 55.3096C179.96 55.3096 172.393 62.9978 172.393 72.4817C172.393 81.9657 179.96 89.6539 189.295 89.6539Z" fill="#509EE3"/>
<path d="M236.619 89.6539C245.954 89.6539 253.521 81.9657 253.521 72.4817C253.521 62.9978 245.954 55.3096 236.619 55.3096C227.284 55.3096 219.717 62.9978 219.717 72.4817C219.717 81.9657 227.284 89.6539 236.619 89.6539Z" fill="#509EE3"/>
<path d="M189.295 138.203C198.629 138.203 206.197 130.515 206.197 121.031C206.197 111.547 198.629 103.858 189.295 103.858C179.96 103.858 172.393 111.547 172.393 121.031C172.393 130.515 179.96 138.203 189.295 138.203Z" fill="#509EE3"/>
<path d="M236.619 138.203C245.954 138.203 253.521 130.515 253.521 121.031C253.521 111.547 245.954 103.858 236.619 103.858C227.284 103.858 219.717 111.547 219.717 121.031C219.717 130.515 227.284 138.203 236.619 138.203Z" fill="#509EE3"/>
<path d="M47.318 185.818C56.6527 185.818 64.22 178.13 64.22 168.646C64.22 159.162 56.6527 151.474 47.318 151.474C37.9833 151.474 30.416 159.162 30.416 168.646C30.416 178.13 37.9833 185.818 47.318 185.818Z" fill="#509EE3"/>
<path opacity="0.2" d="M94.6442 186.285C103.979 186.285 111.546 178.597 111.546 169.113C111.546 159.629 103.979 151.94 94.6442 151.94C85.3095 151.94 77.7422 159.629 77.7422 169.113C77.7422 178.597 85.3095 186.285 94.6442 186.285Z" fill="#509EE3"/>
<path d="M141.968 186.285C151.303 186.285 158.87 178.597 158.87 169.113C158.87 159.629 151.303 151.94 141.968 151.94C132.634 151.94 125.066 159.629 125.066 169.113C125.066 178.597 132.634 186.285 141.968 186.285Z" fill="#509EE3"/>
<path opacity="0.2" d="M189.295 186.285C198.629 186.285 206.197 178.597 206.197 169.113C206.197 159.629 198.629 151.94 189.295 151.94C179.96 151.94 172.393 159.629 172.393 169.113C172.393 178.597 179.96 186.285 189.295 186.285Z" fill="#509EE3"/>
<path d="M236.619 186.285C245.954 186.285 253.521 178.597 253.521 169.113C253.521 159.629 245.954 151.94 236.619 151.94C227.284 151.94 219.717 159.629 219.717 169.113C219.717 178.597 227.284 186.285 236.619 186.285Z" fill="#509EE3"/>
<path d="M47.318 233.9C56.6527 233.9 64.22 226.212 64.22 216.728C64.22 207.244 56.6527 199.556 47.318 199.556C37.9833 199.556 30.416 207.244 30.416 216.728C30.416 226.212 37.9833 233.9 47.318 233.9Z" fill="#509EE3"/>
<path opacity="0.2" d="M94.6442 234.367C103.979 234.367 111.546 226.679 111.546 217.195C111.546 207.711 103.979 200.022 94.6442 200.022C85.3095 200.022 77.7422 207.711 77.7422 217.195C77.7422 226.679 85.3095 234.367 94.6442 234.367Z" fill="#509EE3"/>
<path opacity="0.2" d="M141.968 234.367C151.303 234.367 158.87 226.679 158.87 217.195C158.87 207.711 151.303 200.022 141.968 200.022C132.634 200.022 125.066 207.711 125.066 217.195C125.066 226.679 132.634 234.367 141.968 234.367Z" fill="#509EE3"/>
<path opacity="0.2" d="M141.968 282.449C151.303 282.449 158.87 274.761 158.87 265.277C158.87 255.793 151.303 248.104 141.968 248.104C132.634 248.104 125.066 255.793 125.066 265.277C125.066 274.761 132.634 282.449 141.968 282.449Z" fill="#509EE3"/>
<path opacity="0.2" d="M189.295 234.367C198.629 234.367 206.197 226.679 206.197 217.195C206.197 207.711 198.629 200.022 189.295 200.022C179.96 200.022 172.393 207.711 172.393 217.195C172.393 226.679 179.96 234.367 189.295 234.367Z" fill="#509EE3"/>
<path d="M236.619 234.367C245.954 234.367 253.521 226.679 253.521 217.195C253.521 207.711 245.954 200.022 236.619 200.022C227.284 200.022 219.717 207.711 219.717 217.195C219.717 226.679 227.284 234.367 236.619 234.367Z" fill="#509EE3"/>
</g>
<defs>
<clipPath id="clip0_904_106">
<rect width="282.09" height="282.09" fill="white" transform="translate(0.923828 0.358398)"/>
</clipPath>
</defs>
</svg>
