<?xml version="1.0" encoding="UTF-8"?>
<svg xmlns="http://www.w3.org/2000/svg" xmlns:xlink="http://www.w3.org/1999/xlink" width="2603.3pt" height="735.38pt" viewBox="0 0 2603.3 735.38" version="1.1">
<defs>
<clipPath id="clip1">
  <path d="M 0 0 L 845 0 L 845 735.378906 L 0 735.378906 Z M 0 0 "/>
</clipPath>
<clipPath id="clip2">
  <path d="M 2325 183 L 2603.300781 183 L 2603.300781 550 L 2325 550 Z M 2325 183 "/>
</clipPath>
</defs>
<g id="surface1">
<g clip-path="url(#clip1)" clip-rule="nonzero">
<path style=" stroke:none;fill-rule:nonzero;fill:rgb(1.199341%,70.199585%,51.799011%);fill-opacity:1;" d="M 0 735.378906 C 0 489.097656 0 246.285156 0 0.00390625 C 142.21875 81.519531 282.703125 163.035156 423.1875 244.554688 C 563.671875 163.035156 702.421875 83.253906 844.640625 0.00390625 C 844.640625 246.285156 844.640625 489.101563 844.640625 733.644531 C 773.53125 693.753906 704.15625 653.863281 634.78125 612.238281 C 634.78125 530.722656 634.78125 450.941406 634.78125 367.691406 C 561.9375 409.316406 492.5625 449.210938 423.1875 490.832031 C 353.8125 450.941406 286.171875 411.050781 216.796875 372.898438 C 215.0625 374.628906 213.328125 374.628906 213.328125 374.628906 C 213.328125 374.628906 211.59375 374.628906 211.59375 376.363281 C 211.59375 378.097656 209.859375 379.832031 209.859375 379.832031 C 209.859375 457.878906 209.859375 534.191406 209.859375 613.976563 C 142.21875 653.863281 72.84375 693.753906 0 735.378906 "/>
</g>
<path style=" stroke:none;fill-rule:nonzero;fill:rgb(4.699707%,70.999146%,53.29895%);fill-opacity:1;" d="M 1057.96875 182.113281 C 1087.449219 182.113281 1115.199219 182.113281 1144.691406 182.113281 C 1175.910156 232.410156 1207.128906 282.707031 1240.078125 336.476563 C 1273.03125 282.707031 1304.25 232.410156 1337.199219 182.113281 C 1366.691406 182.113281 1394.441406 182.113281 1423.921875 182.113281 C 1423.921875 305.253906 1423.921875 426.660156 1423.921875 549.800781 C 1397.910156 549.800781 1373.628906 549.800781 1345.878906 549.800781 C 1345.878906 473.488281 1345.878906 397.175781 1345.878906 320.863281 C 1344.140625 320.863281 1342.410156 319.128906 1340.671875 319.128906 C 1326.800781 334.738281 1318.128906 353.816406 1305.980469 369.425781 C 1293.839844 386.769531 1281.699219 405.847656 1269.558594 424.925781 C 1250.480469 424.925781 1229.671875 424.925781 1208.859375 424.925781 C 1186.308594 391.972656 1163.769531 357.285156 1141.21875 322.597656 C 1139.488281 322.597656 1137.75 324.332031 1137.75 324.332031 C 1137.75 398.910156 1137.75 473.488281 1137.75 549.800781 C 1110 549.800781 1083.988281 549.800781 1057.96875 549.800781 C 1057.96875 428.394531 1057.96875 306.988281 1057.96875 182.113281 "/>
<path style=" stroke:none;fill-rule:nonzero;fill:rgb(2.69928%,70.999146%,52.89917%);fill-opacity:1;" d="M 1562.671875 360.753906 C 1562.671875 404.113281 1576.550781 437.066406 1606.03125 459.613281 C 1652.859375 496.035156 1723.96875 487.363281 1758.660156 440.535156 C 1796.808594 390.238281 1788.140625 310.457031 1737.839844 274.035156 C 1701.421875 248.019531 1663.269531 242.816406 1621.640625 261.894531 C 1583.488281 284.441406 1564.410156 320.863281 1562.671875 360.753906 Z M 1477.691406 367.691406 C 1477.691406 258.425781 1562.671875 176.910156 1675.410156 176.910156 C 1784.671875 176.910156 1867.921875 260.160156 1867.921875 367.691406 C 1867.921875 476.957031 1782.941406 558.472656 1670.199219 558.472656 C 1560.941406 558.472656 1477.691406 475.222656 1477.691406 367.691406 "/>
<path style=" stroke:none;fill-rule:nonzero;fill:rgb(2.69928%,70.999146%,52.89917%);fill-opacity:1;" d="M 2004.941406 476.957031 C 2034.421875 476.957031 2062.171875 478.691406 2089.921875 476.957031 C 2103.800781 475.222656 2119.410156 468.285156 2131.550781 461.347656 C 2171.441406 435.332031 2181.839844 397.175781 2176.640625 352.082031 C 2171.441406 312.191406 2150.628906 282.707031 2114.210938 267.097656 C 2079.519531 253.222656 2043.089844 256.691406 2006.671875 256.691406 C 2004.941406 327.800781 2004.941406 402.378906 2004.941406 476.957031 Z M 1923.421875 551.535156 C 1923.421875 430.128906 1923.421875 305.253906 1923.421875 183.847656 C 1926.890625 182.113281 1928.628906 180.378906 1930.359375 180.378906 C 1987.589844 180.378906 2044.828125 178.644531 2102.058594 183.847656 C 2178.378906 190.785156 2239.078125 248.019531 2256.421875 319.128906 C 2275.5 397.175781 2246.019531 475.222656 2181.839844 516.847656 C 2148.890625 539.394531 2110.738281 548.066406 2072.578125 549.800781 C 2027.488281 549.800781 1980.660156 549.800781 1935.558594 549.800781 C 1930.359375 551.535156 1928.628906 553.269531 1923.421875 551.535156 "/>
<g clip-path="url(#clip2)" clip-rule="nonzero">
<path style=" stroke:none;fill-rule:nonzero;fill:rgb(0.799561%,70.599365%,52.198792%);fill-opacity:1;" d="M 2577.28125 329.535156 C 2577.28125 355.550781 2577.28125 378.097656 2577.28125 402.378906 C 2520.050781 402.378906 2462.808594 402.378906 2405.578125 402.378906 C 2405.578125 428.394531 2405.578125 452.679688 2405.578125 478.691406 C 2471.488281 478.691406 2537.390625 478.691406 2603.300781 478.691406 C 2603.300781 502.972656 2603.300781 525.523438 2603.300781 549.800781 C 2511.378906 549.800781 2419.460938 549.800781 2325.800781 549.800781 C 2325.800781 428.394531 2325.800781 306.988281 2325.800781 183.847656 C 2417.71875 183.847656 2507.910156 183.847656 2599.828125 183.847656 C 2599.828125 208.132813 2599.828125 230.675781 2599.828125 254.957031 C 2535.660156 254.957031 2471.488281 254.957031 2405.578125 254.957031 C 2405.578125 280.976563 2405.578125 303.519531 2405.578125 329.535156 C 2462.808594 329.535156 2518.320313 329.535156 2577.28125 329.535156 "/>
</g>
</g>
</svg>
